<?xml version="1.0" encoding="utf-8"?>
<!-- Generator: Adobe Illustrator 24.1.0, SVG Export Plug-In . SVG Version: 6.00 Build 0)  -->
<svg version="1.1" id="Layer_1" xmlns="http://www.w3.org/2000/svg" xmlns:xlink="http://www.w3.org/1999/xlink" x="0px" y="0px"
	 viewBox="0 0 56 46.2" style="enable-background:new 0 0 56 46.2;" xml:space="preserve">
<style type="text/css">
	.st0{fill:#666666;}
</style>
<g id="YdjAWE_1_">
	<g>
		<path class="st0" d="M4.8,39.7c3.3-3.9,6.4-7.5,9.6-11.2c2,2.1,3.9,4.1,6,6.3c3-3.1,5.6-6.4,8.6-9.6c3.2,4.8,6.4,9.6,9.7,14.6
			C27.4,39.7,16.2,39.7,4.8,39.7z"/>
		<path class="st0" d="M12.9,21.5c0,1.7-1.3,3-3,3c-1.8,0-3.1-1.4-3-3.1c0.1-1.7,1.4-2.9,3.1-2.9C11.6,18.5,12.9,19.9,12.9,21.5z"/>
	</g>
</g>
<path class="st0" d="M41.4,14.3v27.6H2.9V14.3H41.4 M44.3,11.4H0v33.5h44.3V11.4L44.3,11.4z"/>
<g>
	<polygon class="st0" points="6,6.2 6,11.4 8.9,11.4 8.9,9.2 47.3,9.2 47.3,36.8 44.3,36.8 44.3,39.7 50.3,39.7 50.3,6.2 	"/>
</g>
<g>
	<polygon class="st0" points="11.7,1.1 11.7,6.2 14.6,6.2 14.6,4 53.1,4 53.1,31.6 50.3,31.6 50.3,34.5 56,34.5 56,1.1 	"/>
</g>
</svg>
