<?xml version="1.0" encoding="utf-8"?>
<!-- Generator: Adobe Illustrator 24.0.3, SVG Export Plug-In . SVG Version: 6.00 Build 0)  -->
<svg version="1.1" id="Layer_1" xmlns="http://www.w3.org/2000/svg" xmlns:xlink="http://www.w3.org/1999/xlink" x="0px" y="0px"
	 viewBox="0 0 46.88 47.83" style="enable-background:new 0 0 46.88 47.83;" xml:space="preserve">
<style type="text/css">
	.st0{clip-path:url(#SVGID_2_);fill:#666666;}
</style>
<g>
	<defs>
		<rect id="SVGID_1_" width="46.88" height="47.83"/>
	</defs>
	<clipPath id="SVGID_2_">
		<use xlink:href="#SVGID_1_"  style="overflow:visible;"/>
	</clipPath>
	<path class="st0" d="M46.88,12.54c-0.1,0.44-0.21,0.87-0.31,1.31c-0.48,2.2-1.58,4.06-3.13,5.64c-3.33,3.41-6.68,6.8-10.02,10.21
		c-4.01,4.1-10.32,4.33-14.53,1.07c-0.41-0.32-0.81-0.68-1.16-1.07c-0.92-1.02-0.51-2.46,0.79-2.85c0.57-0.17,1.02,0.04,1.45,0.37
		c0.45,0.34,0.85,0.74,1.3,1.06c2.83,1.97,6.92,1.83,9.65-0.89c3.44-3.45,6.83-6.95,10.24-10.44c1.4-1.43,2.22-3.18,2.32-5.19
		c0.21-4.11-2.57-7.44-6.17-8.14c-2.8-0.55-5.19,0.31-7.19,2.35c-2.38,2.43-4.76,4.86-7.14,7.29c-0.2,0.2-0.39,0.41-0.6,0.59
		c-0.66,0.54-1.46,0.54-2.09,0.01c-0.66-0.54-0.84-1.43-0.4-2.19c0.16-0.27,0.38-0.5,0.6-0.73c2.45-2.51,4.9-5.02,7.36-7.51
		c1.77-1.79,3.86-2.96,6.37-3.27c0.13-0.02,0.25-0.11,0.37-0.17h2.5c0.15,0.06,0.3,0.17,0.46,0.19c4.28,0.64,7.87,3.92,8.92,8.18
		c0.15,0.61,0.28,1.22,0.41,1.83V12.54z"/>
	<path class="st0" d="M0,35.29c0.1-0.44,0.2-0.88,0.3-1.32c0.48-2.12,1.5-3.94,2.99-5.48c3.21-3.29,6.41-6.58,9.64-9.84
		c4.24-4.28,11.07-4.25,15.25-0.3c0.47,0.45,0.85,0.91,0.81,1.63c-0.04,0.66-0.29,1.16-0.87,1.46c-0.61,0.32-1.2,0.28-1.75-0.14
		c-0.27-0.21-0.53-0.45-0.8-0.68c-2.74-2.41-7.36-2.42-10.15,0.38c-3.32,3.32-6.59,6.7-9.86,10.07c-1.37,1.41-2.12,3.16-2.19,5.13
		c-0.14,3.61,2.01,6.69,5.3,7.77c3,0.98,5.68,0.25,7.93-1.98c2.14-2.12,4.24-4.29,6.34-6.45c0.47-0.49,0.98-0.77,1.66-0.67
		c1.07,0.14,1.73,1.29,1.27,2.29c-0.16,0.34-0.4,0.66-0.67,0.93c-2.08,2.14-4.15,4.28-6.26,6.39c-1.75,1.76-3.82,2.9-6.3,3.2
		c-0.13,0.02-0.24,0.11-0.36,0.17H10c-0.16-0.06-0.32-0.15-0.48-0.17c-4.24-0.43-8.23-4.04-9.17-8.43c-0.1-0.47-0.23-0.93-0.35-1.4
		V35.29z"/>
</g>
</svg>
