<?xml version="1.0" encoding="utf-8"?>
<!-- Generator: Adobe Illustrator 24.0.3, SVG Export Plug-In . SVG Version: 6.00 Build 0)  -->
<svg version="1.1" id="Layer_1" xmlns="http://www.w3.org/2000/svg" xmlns:xlink="http://www.w3.org/1999/xlink" x="0px" y="0px"
	 viewBox="0 0 46.88 54.75" style="enable-background:new 0 0 46.88 54.75;" xml:space="preserve">
<style type="text/css">
	.st0{clip-path:url(#SVGID_2_);fill:#666666;}
	.st1{fill:#666666;}
</style>
<g>
	<defs>
		<rect id="SVGID_1_" width="46.88" height="54.75"/>
	</defs>
	<clipPath id="SVGID_2_">
		<use xlink:href="#SVGID_1_"  style="overflow:visible;"/>
	</clipPath>
	<path class="st0" d="M32.53,4.26c0,2.6-0.06,5.27,0.02,7.94c0.04,1.32,1.01,2.12,2.4,2.15c2.23,0.04,4.47,0.02,6.7,0.02
		c0.36,0,0.72-0.05,0.86-0.06C39.21,10.99,35.88,7.63,32.53,4.26 M8.02,9.45c-1.25,0-2.34-0.11-3.41,0.03
		c-1.53,0.19-2.4,1.33-2.4,2.92c-0.01,5.85-0.02,11.71-0.03,17.56c0,5.16-0.01,10.32,0,15.48c0,1.49-0.01,2.98,0.08,4.47
		c0.09,1.64,1.03,2.53,2.66,2.65c0.25,0.02,0.5,0.01,0.75,0.01c9.2,0,18.41,0,27.61,0c0.35,0,0.7,0.02,1.04-0.03
		c1.28-0.19,2.22-1.11,2.33-2.36c0.07-0.82,0.01-1.66,0.01-2.65h-1.91c-7.07,0-14.13-0.07-21.2,0.03c-2.86,0.04-5.62-1.78-5.58-5.52
		C8.09,31.8,8.02,21.55,8.02,11.3V9.45z M30.2,2.26c-0.54-0.03-0.88-0.06-1.22-0.06c-5.17,0-10.35-0.01-15.52,0
		C11.14,2.2,10.2,3.15,10.2,5.45c-0.01,12.24-0.01,24.47,0,36.71c0,2.09,1.06,3.16,3.09,3.18c1.14,0.01,2.28,0.01,3.42,0
		c2.83-0.02,5.66-0.07,8.49-0.06c5.37,0.01,10.73,0.06,16.1,0.08c2.33,0,3.38-1.04,3.39-3.37c0.02-2.48,0.01-4.96,0.01-7.44
		c0-4.17,0-8.34,0-12.51c0-1.77,0-3.54,0-5.4c-0.62-0.04-1.06-0.09-1.49-0.09c-2.69-0.01-5.37-0.07-8.06,0.02
		c-2.42,0.08-4.6-1.8-4.82-4.16c-0.05-0.59-0.11-1.19-0.11-1.78C30.2,7.89,30.2,5.16,30.2,2.26 M38.86,47.53c0,0.91,0.01,1.6,0,2.29
		c-0.06,2.86-2.06,4.91-4.91,4.92c-9.66,0.03-19.31,0.02-28.97,0c-2.96-0.01-4.93-2.08-4.96-5.19c-0.03-3.68-0.01-7.37-0.01-11.05
		c0-8.41,0-16.82,0-25.23c0-0.35-0.02-0.7,0-1.05c0.16-3.04,2.14-4.94,5.2-4.99c0.88-0.01,1.76,0,2.8,0c0-0.86-0.01-1.54,0-2.23
		c0.05-2.94,2.06-4.96,5-4.97C18.89,0,24.77,0.03,30.64,0c0.81,0,1.41,0.23,1.98,0.81c4.45,4.48,8.92,8.95,13.41,13.41
		c0.61,0.61,0.85,1.25,0.85,2.12c-0.03,8.51-0.01,17.02-0.02,25.53c0,0.45-0.01,0.9-0.08,1.34c-0.43,2.66-2.2,4.23-4.89,4.32
		C40.95,47.56,40.01,47.53,38.86,47.53"/>
</g>
<path class="st1" d="M39.71,23.63h-24c-0.55,0-1-0.45-1-1s0.45-1,1-1h24c0.55,0,1,0.45,1,1S40.26,23.63,39.71,23.63z"/>
<path class="st1" d="M39.71,34.18h-24c-0.55,0-1-0.45-1-1s0.45-1,1-1h24c0.55,0,1,0.45,1,1S40.26,34.18,39.71,34.18z"/>
<path class="st1" d="M39.71,28.9h-24c-0.55,0-1-0.45-1-1s0.45-1,1-1h24c0.55,0,1,0.45,1,1S40.26,28.9,39.71,28.9z"/>
<path class="st1" d="M39.71,39.45h-24c-0.55,0-1-0.45-1-1s0.45-1,1-1h24c0.55,0,1,0.45,1,1S40.26,39.45,39.71,39.45z"/>
</svg>
