<?xml version="1.0" encoding="utf-8"?>
<!-- Generator: Adobe Illustrator 24.0.3, SVG Export Plug-In . SVG Version: 6.00 Build 0)  -->
<svg version="1.1" id="Layer_1" xmlns="http://www.w3.org/2000/svg" xmlns:xlink="http://www.w3.org/1999/xlink" x="0px" y="0px"
	 viewBox="0 0 56 46.15" style="enable-background:new 0 0 56 46.15;" xml:space="preserve">
<style type="text/css">
	.st0{clip-path:url(#SVGID_2_);fill:#666666;}
</style>
<g>
	<defs>
		<rect id="SVGID_1_" width="56" height="46.15"/>
	</defs>
	<clipPath id="SVGID_2_">
		<use xlink:href="#SVGID_1_"  style="overflow:visible;"/>
	</clipPath>
	<path class="st0" d="M27.74,43.1c6.84-0.02,13.35-0.5,19.83-1.49c2.89-0.44,4.46-1.98,4.92-5.24c0.66-4.6,0.98-9.22,0.97-13.87
		c-0.01-4.66-0.38-9.27-1.22-13.84c-0.42-2.28-1.86-3.55-3.96-4.01c-1.03-0.23-2.08-0.36-3.13-0.45c-4.51-0.39-9.01-0.86-13.52-1.08
		c-5.17-0.25-10.35-0.07-15.51,0.54c-2.65,0.31-5.3,0.55-7.94,0.94C5.42,5.03,4,6.56,3.59,9.45c-0.61,4.33-1.03,8.68-1.02,13.07
		c0.01,4.92,0.27,9.8,1.16,14.64c0.48,2.61,1.85,3.94,4.32,4.36C14.67,42.63,21.33,43.08,27.74,43.1 M28.1,0
		c6.44,0.11,12.86,0.53,19.24,1.49c4.49,0.68,7.06,4.01,7.63,7.92c1.21,8.27,1.41,16.53,0.32,24.83c-0.12,0.94-0.24,1.88-0.37,2.82
		c-0.47,3.56-3.42,7-6.91,7.41c-3.03,0.36-6.05,0.78-9.08,1.13c-4.32,0.51-8.66,0.61-13,0.52c-6.06-0.12-12.09-0.6-18.07-1.69
		c-3.31-0.6-6.15-3.48-6.69-6.95C0.21,31.15-0.31,24.77,0.2,18.34c0.24-2.99,0.57-5.97,0.88-8.95c0.39-3.72,3-7.2,7.64-7.9
		C15.15,0.51,21.61,0.11,28.1,0"/>
	<path class="st0" d="M19.74,33.99V12.47c1.11,0.19,18.41,9.15,20.61,10.69C33.48,26.77,26.7,30.33,19.74,33.99"/>
</g>
</svg>
