<?xml version="1.0" encoding="utf-8"?>
<!-- Generator: Adobe Illustrator 24.0.3, SVG Export Plug-In . SVG Version: 6.00 Build 0)  -->
<svg version="1.1" id="Layer_1" xmlns="http://www.w3.org/2000/svg" xmlns:xlink="http://www.w3.org/1999/xlink" x="0px" y="0px"
	 viewBox="0 0 337.97 110.45" style="enable-background:new 0 0 337.97 110.45;" xml:space="preserve">
<style type="text/css">
	.st0{fill:#58595B;}
	.st1{fill:#6CCEEF;}
	.st2{fill:#3F5BA9;}
</style>
<g>
	<g>
		<g>
			<g>
				<path class="st0" d="M10.17,51.25c0,1.96-1.54,3.11-4.48,3.11H0V42.91h5.37c2.75,0,4.22,1.16,4.22,2.98
					c0,1.18-0.59,2.04-1.47,2.52C9.34,48.8,10.17,49.77,10.17,51.25z M2.13,44.58v3.16h3.01c1.47,0,2.31-0.52,2.31-1.57
					c0-1.06-0.83-1.59-2.31-1.59H2.13z M8.03,51.04c0-1.15-0.87-1.65-2.47-1.65H2.13v3.3h3.43C7.16,52.69,8.03,52.19,8.03,51.04z"/>
				<path class="st0" d="M17.31,45.53v1.95c-0.18-0.03-0.33-0.05-0.47-0.05c-1.55,0-2.54,0.92-2.54,2.7v4.24h-2.04v-8.74h1.95v1.28
					C14.79,45.99,15.85,45.53,17.31,45.53z"/>
				<path class="st0" d="M27.14,50.65h-6.85c0.25,1.28,1.31,2.09,2.83,2.09c0.98,0,1.75-0.31,2.37-0.95l1.1,1.26
					c-0.79,0.93-2.01,1.42-3.52,1.42c-2.93,0-4.83-1.88-4.83-4.48c0-2.6,1.91-4.47,4.51-4.47c2.55,0,4.42,1.78,4.42,4.51
					C27.17,50.21,27.15,50.45,27.14,50.65z M20.27,49.29h4.96c-0.16-1.26-1.13-2.13-2.47-2.13C21.43,47.16,20.46,48.02,20.27,49.29z
					"/>
				<path class="st0" d="M36.2,49.24v5.12h-1.93V53.3c-0.49,0.75-1.44,1.18-2.75,1.18c-2,0-3.25-1.1-3.25-2.62
					c0-1.46,0.98-2.6,3.63-2.6h2.26v-0.13c0-1.19-0.72-1.9-2.18-1.9c-0.98,0-2,0.33-2.65,0.87l-0.8-1.49
					c0.93-0.72,2.29-1.08,3.7-1.08C34.74,45.53,36.2,46.72,36.2,49.24z M34.15,51.63v-1.01h-2.11c-1.39,0-1.77,0.52-1.77,1.16
					c0,0.74,0.62,1.21,1.67,1.21C32.94,52.99,33.81,52.53,34.15,51.63z"/>
				<path class="st0" d="M37.82,53.49l0.79-1.55c0.77,0.51,1.95,0.87,3.04,0.87c1.29,0,1.83-0.36,1.83-0.97c0-1.67-5.4-0.1-5.4-3.58
					c0-1.65,1.49-2.73,3.84-2.73c1.16,0,2.49,0.28,3.27,0.75l-0.79,1.55c-0.83-0.49-1.67-0.65-2.5-0.65c-1.24,0-1.83,0.41-1.83,0.98
					c0,1.77,5.4,0.2,5.4,3.61c0,1.64-1.5,2.7-3.96,2.7C40.06,54.48,38.6,54.05,37.82,53.49z"/>
				<path class="st0" d="M52.49,53.89c-0.49,0.39-1.23,0.59-1.96,0.59c-1.91,0-3.01-1.01-3.01-2.94v-4.2h-1.44v-1.64h1.44v-2h2.04v2
					h2.34v1.64h-2.34v4.16c0,0.85,0.43,1.31,1.21,1.31c0.43,0,0.83-0.11,1.14-0.36L52.49,53.89z"/>
				<path class="st0" d="M56.43,45.17v0.52h2.4v1.64H56.5v7.03h-2.04v-7.03h-1.44v-1.64h1.44v-0.56c0-1.83,1.1-3.03,3.12-3.03
					c0.7,0,1.39,0.15,1.85,0.47l-0.57,1.54c-0.31-0.21-0.7-0.36-1.13-0.36C56.88,43.76,56.43,44.24,56.43,45.17z"/>
				<path class="st0" d="M68.26,50.65h-6.85c0.25,1.28,1.31,2.09,2.83,2.09c0.98,0,1.75-0.31,2.37-0.95l1.1,1.26
					c-0.79,0.93-2.01,1.42-3.52,1.42c-2.93,0-4.83-1.88-4.83-4.48c0-2.6,1.91-4.47,4.51-4.47c2.55,0,4.42,1.78,4.42,4.51
					C68.29,50.21,68.28,50.45,68.26,50.65z M61.39,49.29h4.96c-0.16-1.26-1.13-2.13-2.47-2.13C62.55,47.16,61.59,48.02,61.39,49.29z
					"/>
				<path class="st0" d="M78.43,50.65h-6.85c0.25,1.28,1.31,2.09,2.83,2.09c0.98,0,1.75-0.31,2.37-0.95l1.1,1.26
					c-0.79,0.93-2.01,1.42-3.52,1.42c-2.93,0-4.83-1.88-4.83-4.48c0-2.6,1.91-4.47,4.52-4.47c2.55,0,4.42,1.78,4.42,4.51
					C78.47,50.21,78.45,50.45,78.43,50.65z M71.56,49.29h4.96c-0.16-1.26-1.13-2.13-2.47-2.13C72.73,47.16,71.76,48.02,71.56,49.29z
					"/>
				<path class="st0" d="M88.98,42.22v12.14h-1.96v-1.13c-0.69,0.83-1.7,1.24-2.89,1.24c-2.54,0-4.42-1.77-4.42-4.48
					c0-2.72,1.88-4.47,4.42-4.47c1.13,0,2.13,0.38,2.81,1.18v-4.48H88.98z M86.97,49.99c0-1.67-1.13-2.73-2.6-2.73
					c-1.47,0-2.6,1.06-2.6,2.73c0,1.67,1.13,2.73,2.6,2.73C85.84,52.73,86.97,51.66,86.97,49.99z"/>
				<path class="st0" d="M91.39,42.96c0-0.69,0.56-1.23,1.31-1.23c0.75,0,1.31,0.51,1.31,1.18c0,0.72-0.54,1.28-1.31,1.28
					C91.95,44.19,91.39,43.65,91.39,42.96z M91.67,45.63h2.04v8.74h-2.04V45.63z"/>
				<path class="st0" d="M105,49.36v5.01h-2.04v-4.74c0-1.55-0.77-2.31-2.08-2.31c-1.46,0-2.44,0.88-2.44,2.63v4.42h-2.04v-8.74
					h1.95v1.13c0.67-0.8,1.73-1.23,3.01-1.23C103.44,45.53,105,46.72,105,49.36z"/>
				<path class="st0" d="M116.35,45.63v7.41c0,3.17-1.65,4.61-4.71,4.61c-1.64,0-3.25-0.43-4.25-1.24l0.92-1.54
					c0.77,0.64,2.01,1.05,3.22,1.05c1.93,0,2.78-0.88,2.78-2.65v-0.46c-0.72,0.79-1.75,1.16-2.93,1.16c-2.5,0-4.42-1.7-4.42-4.24
					c0-2.54,1.91-4.2,4.42-4.2c1.23,0,2.31,0.39,3.03,1.26v-1.16H116.35z M114.34,49.73c0-1.47-1.11-2.47-2.65-2.47
					c-1.55,0-2.67,1-2.67,2.47c0,1.49,1.11,2.5,2.67,2.5C113.23,52.24,114.34,51.22,114.34,49.73z"/>
				<path class="st0" d="M23.41,68.27c0-3.42,2.62-5.89,6.13-5.89c1.87,0,3.47,0.67,4.53,1.91l-1.37,1.29
					c-0.83-0.9-1.87-1.34-3.06-1.34c-2.37,0-4.09,1.67-4.09,4.02s1.72,4.02,4.09,4.02c1.19,0,2.22-0.44,3.06-1.36l1.37,1.31
					c-1.06,1.24-2.67,1.91-4.55,1.91C26.02,74.15,23.41,71.69,23.41,68.27z"/>
				<path class="st0" d="M34.87,69.62c0-2.62,1.96-4.47,4.65-4.47c2.72,0,4.66,1.85,4.66,4.47s-1.95,4.48-4.66,4.48
					C36.84,74.11,34.87,72.24,34.87,69.62z M42.12,69.62c0-1.67-1.11-2.73-2.6-2.73c-1.47,0-2.58,1.06-2.58,2.73
					c0,1.67,1.11,2.73,2.58,2.73C41.01,72.36,42.12,71.29,42.12,69.62z"/>
				<path class="st0" d="M60.75,68.99v5h-2.04v-4.74c0-1.55-0.72-2.31-1.96-2.31c-1.34,0-2.27,0.88-2.27,2.62v4.43h-2.04v-4.74
					c0-1.55-0.72-2.31-1.96-2.31c-1.36,0-2.27,0.88-2.27,2.62v4.43h-2.04v-8.73h1.95v1.11c0.65-0.79,1.67-1.21,2.86-1.21
					c1.28,0,2.34,0.47,2.94,1.46c0.7-0.9,1.88-1.46,3.27-1.46C59.28,65.16,60.75,66.35,60.75,68.99z"/>
				<path class="st0" d="M77.97,68.99v5h-2.04v-4.74c0-1.55-0.72-2.31-1.96-2.31c-1.34,0-2.27,0.88-2.27,2.62v4.43h-2.04v-4.74
					c0-1.55-0.72-2.31-1.96-2.31c-1.36,0-2.27,0.88-2.27,2.62v4.43h-2.04v-8.73h1.95v1.11c0.65-0.79,1.67-1.21,2.86-1.21
					c1.28,0,2.34,0.47,2.94,1.46c0.7-0.9,1.88-1.46,3.27-1.46C76.5,65.16,77.97,66.35,77.97,68.99z"/>
				<path class="st0" d="M80.31,62.59c0-0.69,0.56-1.23,1.31-1.23c0.75,0,1.31,0.51,1.31,1.18c0,0.72-0.54,1.28-1.31,1.28
					C80.87,63.82,80.31,63.28,80.31,62.59z M80.59,65.26h2.04v8.73h-2.04V65.26z"/>
				<path class="st0" d="M90.57,73.52c-0.49,0.39-1.23,0.59-1.96,0.59c-1.91,0-3.01-1.01-3.01-2.94v-4.2h-1.44v-1.64h1.44v-2h2.04v2
					h2.34v1.64h-2.34v4.15c0,0.85,0.42,1.31,1.21,1.31c0.42,0,0.83-0.11,1.15-0.36L90.57,73.52z"/>
				<path class="st0" d="M97.29,73.52c-0.49,0.39-1.23,0.59-1.96,0.59c-1.91,0-3.01-1.01-3.01-2.94v-4.2h-1.44v-1.64h1.44v-2h2.04v2
					h2.34v1.64h-2.34v4.15c0,0.85,0.43,1.31,1.21,1.31c0.42,0,0.83-0.11,1.14-0.36L97.29,73.52z"/>
				<path class="st0" d="M106.86,70.28h-6.85c0.25,1.28,1.31,2.09,2.83,2.09c0.98,0,1.75-0.31,2.37-0.95l1.1,1.26
					c-0.79,0.93-2.01,1.42-3.52,1.42c-2.93,0-4.83-1.88-4.83-4.48s1.91-4.47,4.51-4.47c2.55,0,4.42,1.78,4.42,4.51
					C106.9,69.84,106.88,70.08,106.86,70.28z M99.99,68.92h4.96c-0.16-1.26-1.13-2.13-2.47-2.13
					C101.15,66.79,100.19,67.64,99.99,68.92z"/>
				<path class="st0" d="M117.04,70.28h-6.85c0.25,1.28,1.31,2.09,2.83,2.09c0.98,0,1.75-0.31,2.37-0.95l1.1,1.26
					c-0.79,0.93-2.01,1.42-3.52,1.42c-2.93,0-4.83-1.88-4.83-4.48s1.91-4.47,4.51-4.47c2.55,0,4.42,1.78,4.42,4.51
					C117.07,69.84,117.05,70.08,117.04,70.28z M110.17,68.92h4.96c-0.16-1.26-1.13-2.13-2.47-2.13
					C111.33,66.79,110.36,67.64,110.17,68.92z"/>
				<path class="st0" d="M29.33,84.43v0.52h2.4v1.64h-2.34v7.03h-2.04v-7.03h-1.44v-1.64h1.44v-0.56c0-1.83,1.1-3.03,3.12-3.03
					c0.7,0,1.39,0.15,1.85,0.47l-0.57,1.54c-0.31-0.21-0.7-0.36-1.13-0.36C29.77,83.02,29.33,83.49,29.33,84.43z"/>
				<path class="st0" d="M32.26,89.25c0-2.62,1.96-4.47,4.65-4.47c2.72,0,4.66,1.85,4.66,4.47s-1.95,4.48-4.66,4.48
					C34.22,93.74,32.26,91.87,32.26,89.25z M39.5,89.25c0-1.67-1.11-2.73-2.6-2.73c-1.47,0-2.58,1.06-2.58,2.73
					c0,1.67,1.11,2.73,2.58,2.73C38.39,91.98,39.5,90.92,39.5,89.25z"/>
				<path class="st0" d="M48.58,84.79v1.95c-0.18-0.03-0.33-0.05-0.47-0.05c-1.55,0-2.54,0.92-2.54,2.7v4.24h-2.04v-8.73h1.95v1.28
					C46.06,85.24,47.12,84.79,48.58,84.79z"/>
				<path class="st0" d="M54.29,87.9c0-3.42,2.62-5.89,6.13-5.89c1.86,0,3.47,0.67,4.53,1.91l-1.38,1.29
					c-0.83-0.9-1.86-1.34-3.06-1.34c-2.37,0-4.09,1.67-4.09,4.02s1.72,4.02,4.09,4.02c1.19,0,2.22-0.44,3.06-1.36l1.38,1.31
					c-1.06,1.24-2.67,1.91-4.55,1.91C56.91,93.78,54.29,91.31,54.29,87.9z"/>
				<path class="st0" d="M74.03,88.5v5.12H72.1v-1.06c-0.49,0.75-1.44,1.18-2.75,1.18c-2,0-3.25-1.1-3.25-2.62
					c0-1.46,0.98-2.6,3.63-2.6h2.26v-0.13c0-1.19-0.72-1.9-2.18-1.9c-0.98,0-2,0.33-2.65,0.87l-0.8-1.49
					c0.93-0.72,2.29-1.08,3.7-1.08C72.58,84.79,74.03,85.98,74.03,88.5z M71.99,90.89v-1.01h-2.11c-1.39,0-1.77,0.52-1.77,1.16
					c0,0.74,0.62,1.21,1.67,1.21C70.78,92.25,71.64,91.79,71.99,90.89z"/>
				<path class="st0" d="M85.25,88.61v5h-2.04v-4.74c0-1.55-0.77-2.31-2.08-2.31c-1.46,0-2.44,0.88-2.44,2.63v4.42h-2.04v-8.73h1.95
					v1.13c0.67-0.8,1.73-1.23,3.01-1.23C83.7,84.79,85.25,85.98,85.25,88.61z"/>
				<path class="st0" d="M95.17,88.5v5.12h-1.93v-1.06c-0.49,0.75-1.44,1.18-2.75,1.18c-2,0-3.25-1.1-3.25-2.62
					c0-1.46,0.98-2.6,3.63-2.6h2.26v-0.13c0-1.19-0.72-1.9-2.18-1.9c-0.98,0-2,0.33-2.65,0.87l-0.8-1.49
					c0.93-0.72,2.29-1.08,3.7-1.08C93.71,84.79,95.17,85.98,95.17,88.5z M93.12,90.89v-1.01h-2.11c-1.39,0-1.77,0.52-1.77,1.16
					c0,0.74,0.62,1.21,1.67,1.21C91.91,92.25,92.78,91.79,93.12,90.89z"/>
				<path class="st0" d="M106.42,81.48v12.14h-1.96v-1.13c-0.69,0.83-1.7,1.24-2.9,1.24c-2.54,0-4.42-1.77-4.42-4.48
					c0-2.71,1.88-4.47,4.42-4.47c1.13,0,2.13,0.38,2.81,1.18v-4.48H106.42z M104.41,89.25c0-1.67-1.13-2.73-2.6-2.73
					c-1.47,0-2.6,1.06-2.6,2.73c0,1.67,1.13,2.73,2.6,2.73C103.28,91.98,104.41,90.92,104.41,89.25z"/>
				<path class="st0" d="M116.42,88.5v5.12h-1.93v-1.06c-0.49,0.75-1.44,1.18-2.75,1.18c-2,0-3.25-1.1-3.25-2.62
					c0-1.46,0.98-2.6,3.63-2.6h2.26v-0.13c0-1.19-0.72-1.9-2.18-1.9c-0.98,0-2,0.33-2.65,0.87l-0.8-1.49
					c0.93-0.72,2.29-1.08,3.7-1.08C114.96,84.79,116.42,85.98,116.42,88.5z M114.37,90.89v-1.01h-2.11c-1.39,0-1.77,0.52-1.77,1.16
					c0,0.74,0.62,1.21,1.67,1.21C113.16,92.25,114.03,91.79,114.37,90.89z"/>
			</g>
		</g>
		<g>
			<g>
				<path class="st0" d="M216.88,48.64c0-3.42,2.62-5.89,6.13-5.89c1.86,0,3.47,0.67,4.53,1.91l-1.37,1.29
					c-0.83-0.9-1.87-1.34-3.06-1.34c-2.37,0-4.09,1.67-4.09,4.02s1.72,4.02,4.09,4.02c1.19,0,2.22-0.44,3.06-1.36l1.37,1.31
					c-1.06,1.24-2.67,1.91-4.55,1.91C219.49,54.53,216.88,52.06,216.88,48.64z"/>
				<path class="st0" d="M228.34,49.99c0-2.62,1.96-4.47,4.65-4.47c2.72,0,4.66,1.85,4.66,4.47s-1.95,4.48-4.66,4.48
					C230.31,54.48,228.34,52.61,228.34,49.99z M235.59,49.99c0-1.67-1.11-2.73-2.6-2.73c-1.47,0-2.58,1.06-2.58,2.73
					c0,1.67,1.11,2.73,2.58,2.73C234.48,52.73,235.59,51.66,235.59,49.99z"/>
				<path class="st0" d="M254.22,49.36v5h-2.04v-4.74c0-1.55-0.72-2.31-1.96-2.31c-1.34,0-2.27,0.88-2.27,2.62v4.43h-2.04v-4.74
					c0-1.55-0.72-2.31-1.96-2.31c-1.36,0-2.27,0.88-2.27,2.62v4.43h-2.04v-8.73h1.95v1.11c0.65-0.79,1.67-1.21,2.86-1.21
					c1.28,0,2.34,0.47,2.94,1.46c0.7-0.9,1.88-1.46,3.27-1.46C252.75,45.53,254.22,46.72,254.22,49.36z"/>
				<path class="st0" d="M256.56,42.96c0-0.69,0.56-1.23,1.31-1.23s1.31,0.51,1.31,1.18c0,0.72-0.54,1.28-1.31,1.28
					C257.12,44.19,256.56,43.65,256.56,42.96z M256.84,45.63h2.04v8.73h-2.04V45.63z"/>
				<path class="st0" d="M266.82,53.89c-0.49,0.39-1.23,0.59-1.96,0.59c-1.91,0-3.01-1.01-3.01-2.94v-4.2h-1.44v-1.64h1.44v-2h2.04
					v2h2.34v1.64h-2.34v4.15c0,0.85,0.42,1.31,1.21,1.31c0.42,0,0.83-0.11,1.15-0.36L266.82,53.89z"/>
				<path class="st0" d="M276.39,50.65h-6.85c0.25,1.28,1.31,2.09,2.83,2.09c0.98,0,1.75-0.31,2.37-0.95l1.1,1.26
					c-0.79,0.93-2.01,1.42-3.52,1.42c-2.93,0-4.83-1.88-4.83-4.48s1.91-4.47,4.51-4.47c2.55,0,4.42,1.78,4.42,4.51
					C276.42,50.21,276.4,50.45,276.39,50.65z M269.52,49.29h4.96c-0.16-1.26-1.13-2.13-2.47-2.13
					C270.68,47.16,269.71,48.02,269.52,49.29z M272.35,44.43h-1.77l2.21-2.24h2.4L272.35,44.43z"/>
				<path class="st0" d="M216.78,69.62c0-2.62,1.96-4.46,4.73-4.46c1.7,0,3.06,0.7,3.73,2.03l-1.57,0.92
					c-0.52-0.83-1.31-1.21-2.18-1.21c-1.51,0-2.65,1.05-2.65,2.73c0,1.7,1.14,2.73,2.65,2.73c0.87,0,1.65-0.38,2.18-1.21l1.57,0.92
					c-0.67,1.31-2.03,2.04-3.73,2.04C218.74,74.11,216.78,72.24,216.78,69.62z"/>
				<path class="st0" d="M234.31,68.87v5.12h-1.93v-1.06c-0.49,0.75-1.44,1.18-2.75,1.18c-2,0-3.26-1.1-3.26-2.62
					c0-1.46,0.98-2.6,3.63-2.6h2.26v-0.13c0-1.19-0.72-1.9-2.18-1.9c-0.98,0-2,0.33-2.65,0.87l-0.8-1.49
					c0.93-0.72,2.29-1.08,3.7-1.08C232.86,65.16,234.31,66.35,234.31,68.87z M232.27,71.26v-1.01h-2.11c-1.39,0-1.77,0.52-1.77,1.16
					c0,0.74,0.62,1.21,1.67,1.21C231.06,72.62,231.93,72.16,232.27,71.26z"/>
				<path class="st0" d="M245.54,68.99v5.01h-2.04v-4.74c0-1.55-0.77-2.31-2.08-2.31c-1.46,0-2.44,0.88-2.44,2.63v4.42h-2.04v-8.74
					h1.95v1.13c0.67-0.8,1.73-1.23,3.01-1.23C243.98,65.16,245.54,66.35,245.54,68.99z"/>
				<path class="st0" d="M255.45,68.87v5.12h-1.93v-1.06c-0.49,0.75-1.44,1.18-2.75,1.18c-2,0-3.25-1.1-3.25-2.62
					c0-1.46,0.98-2.6,3.63-2.6h2.26v-0.13c0-1.19-0.72-1.9-2.17-1.9c-0.98,0-2,0.33-2.65,0.87l-0.8-1.49
					c0.93-0.72,2.29-1.08,3.7-1.08C253.99,65.16,255.45,66.35,255.45,68.87z M253.4,71.26v-1.01h-2.11c-1.39,0-1.77,0.52-1.77,1.16
					c0,0.74,0.62,1.21,1.67,1.21C252.19,72.62,253.06,72.16,253.4,71.26z"/>
				<path class="st0" d="M266.7,61.85v12.14h-1.96v-1.13c-0.69,0.83-1.7,1.24-2.89,1.24c-2.54,0-4.42-1.77-4.42-4.48
					c0-2.71,1.88-4.46,4.42-4.46c1.13,0,2.13,0.38,2.81,1.18v-4.48H266.7z M264.69,69.62c0-1.67-1.13-2.73-2.6-2.73
					c-1.47,0-2.6,1.06-2.6,2.73c0,1.67,1.13,2.73,2.6,2.73C263.56,72.36,264.69,71.29,264.69,69.62z"/>
				<path class="st0" d="M269.11,62.59c0-0.69,0.55-1.23,1.31-1.23c0.75,0,1.31,0.51,1.31,1.18c0,0.72-0.54,1.28-1.31,1.28
					C269.66,63.82,269.11,63.28,269.11,62.59z M269.38,65.26h2.04v8.74h-2.04V65.26z"/>
				<path class="st0" d="M282.29,70.28h-6.85c0.24,1.28,1.31,2.09,2.83,2.09c0.98,0,1.75-0.31,2.37-0.95l1.1,1.26
					c-0.79,0.93-2.01,1.42-3.52,1.42c-2.93,0-4.82-1.88-4.82-4.48c0-2.6,1.91-4.46,4.51-4.46c2.55,0,4.42,1.78,4.42,4.51
					C282.32,69.84,282.31,70.08,282.29,70.28z M275.42,68.92h4.96c-0.16-1.26-1.13-2.13-2.47-2.13
					C276.58,66.79,275.62,67.65,275.42,68.92z"/>
				<path class="st0" d="M292.89,68.99v5.01h-2.04v-4.74c0-1.55-0.77-2.31-2.08-2.31c-1.46,0-2.44,0.88-2.44,2.63v4.42h-2.04v-8.74
					h1.95v1.13c0.67-0.8,1.73-1.23,3.01-1.23C291.34,65.16,292.89,66.35,292.89,68.99z"/>
				<path class="st0" d="M309.28,69.62c0,2.72-1.88,4.48-4.43,4.48c-1.11,0-2.09-0.38-2.8-1.18v4.24h-2.04V65.26h1.95v1.15
					c0.69-0.83,1.7-1.24,2.9-1.24C307.4,65.16,309.28,66.93,309.28,69.62z M307.2,69.62c0-1.67-1.11-2.73-2.58-2.73
					s-2.6,1.06-2.6,2.73c0,1.67,1.13,2.73,2.6,2.73S307.2,71.29,307.2,69.62z"/>
				<path class="st0" d="M310.51,69.62c0-2.62,1.96-4.46,4.65-4.46c2.71,0,4.66,1.85,4.66,4.46s-1.95,4.48-4.66,4.48
					C312.47,74.11,310.51,72.24,310.51,69.62z M317.75,69.62c0-1.67-1.11-2.73-2.6-2.73c-1.47,0-2.58,1.06-2.58,2.73
					c0,1.67,1.11,2.73,2.58,2.73C316.64,72.36,317.75,71.29,317.75,69.62z"/>
				<path class="st0" d="M330.23,65.26v8.74h-1.95v-1.11c-0.65,0.8-1.68,1.23-2.81,1.23c-2.24,0-3.76-1.23-3.76-3.86v-4.99h2.04
					v4.71c0,1.59,0.75,2.34,2.04,2.34c1.42,0,2.39-0.88,2.39-2.63v-4.42H330.23z"/>
				<path class="st0" d="M337.97,65.16v1.95c-0.18-0.03-0.33-0.05-0.47-0.05c-1.55,0-2.54,0.92-2.54,2.7v4.24h-2.04v-8.74h1.95v1.28
					C335.45,65.62,336.52,65.16,337.97,65.16z"/>
				<path class="st0" d="M217.5,81.48h2.04v12.14h-2.04V81.48z"/>
				<path class="st0" d="M224.22,82.71c0,0.38-0.06,0.65-0.36,1.41l-0.85,2.32h-1.33l0.65-2.52c-0.46-0.18-0.77-0.61-0.77-1.21
					c0-0.8,0.57-1.34,1.33-1.34C223.67,81.37,224.22,81.92,224.22,82.71z"/>
				<path class="st0" d="M233.37,88.5v5.12h-1.93v-1.06c-0.49,0.75-1.44,1.18-2.75,1.18c-2,0-3.26-1.1-3.26-2.62
					c0-1.46,0.98-2.6,3.63-2.6h2.26v-0.13c0-1.19-0.72-1.9-2.18-1.9c-0.98,0-2,0.33-2.65,0.87l-0.8-1.49
					c0.93-0.72,2.29-1.08,3.7-1.08C231.91,84.79,233.37,85.98,233.37,88.5z M231.32,90.89v-1.01h-2.11c-1.39,0-1.77,0.52-1.77,1.16
					c0,0.74,0.62,1.21,1.67,1.21C230.11,92.25,230.98,91.79,231.32,90.89z"/>
				<path class="st0" d="M235.98,81.48h2.04v12.14h-2.04V81.48z"/>
				<path class="st0" d="M240.71,81.48h2.04v12.14h-2.04V81.48z"/>
				<path class="st0" d="M252.75,88.5v5.12h-1.93v-1.06c-0.49,0.75-1.44,1.18-2.75,1.18c-2,0-3.26-1.1-3.26-2.62
					c0-1.46,0.98-2.6,3.63-2.6h2.26v-0.13c0-1.19-0.72-1.9-2.18-1.9c-0.98,0-1.99,0.33-2.65,0.87l-0.8-1.49
					c0.93-0.72,2.29-1.08,3.7-1.08C251.29,84.79,252.75,85.98,252.75,88.5z M250.7,90.89v-1.01h-2.11c-1.39,0-1.77,0.52-1.77,1.16
					c0,0.74,0.62,1.21,1.67,1.21C249.49,92.25,250.36,91.79,250.7,90.89z"/>
				<path class="st0" d="M255.09,82.22c0-0.69,0.56-1.23,1.31-1.23s1.31,0.51,1.31,1.18c0,0.72-0.54,1.28-1.31,1.28
					C255.64,83.45,255.09,82.91,255.09,82.22z M255.37,84.89h2.04v8.74h-2.04V84.89z"/>
				<path class="st0" d="M265.34,93.15c-0.49,0.39-1.23,0.59-1.96,0.59c-1.91,0-3.01-1.01-3.01-2.94v-4.2h-1.44v-1.64h1.44v-2h2.04
					v2h2.34v1.64h-2.34v4.16c0,0.85,0.42,1.31,1.21,1.31c0.42,0,0.83-0.12,1.15-0.36L265.34,93.15z"/>
				<path class="st0" d="M274.91,89.91h-6.85c0.25,1.28,1.31,2.09,2.83,2.09c0.98,0,1.75-0.31,2.37-0.95l1.1,1.26
					c-0.79,0.93-2.01,1.42-3.52,1.42c-2.93,0-4.83-1.88-4.83-4.48c0-2.6,1.91-4.46,4.52-4.46c2.55,0,4.42,1.78,4.42,4.51
					C274.95,89.47,274.93,89.71,274.91,89.91z M268.04,88.55H273c-0.16-1.26-1.13-2.13-2.47-2.13
					C269.2,86.42,268.24,87.27,268.04,88.55z"/>
				<path class="st0" d="M291.52,88.61v5.01h-2.04v-4.74c0-1.55-0.72-2.31-1.96-2.31c-1.34,0-2.27,0.88-2.27,2.62v4.43h-2.04v-4.74
					c0-1.55-0.72-2.31-1.96-2.31c-1.36,0-2.27,0.88-2.27,2.62v4.43h-2.04v-8.74h1.95V86c0.65-0.79,1.67-1.21,2.86-1.21
					c1.28,0,2.34,0.47,2.94,1.46c0.7-0.9,1.88-1.46,3.27-1.46C290.04,84.79,291.52,85.98,291.52,88.61z"/>
				<path class="st0" d="M302.39,89.91h-6.85c0.25,1.28,1.31,2.09,2.83,2.09c0.98,0,1.75-0.31,2.37-0.95l1.1,1.26
					c-0.79,0.93-2.01,1.42-3.52,1.42c-2.93,0-4.83-1.88-4.83-4.48c0-2.6,1.91-4.46,4.51-4.46c2.55,0,4.42,1.78,4.42,4.51
					C302.43,89.47,302.41,89.71,302.39,89.91z M295.52,88.55h4.96c-0.16-1.26-1.13-2.13-2.47-2.13
					C296.69,86.42,295.72,87.27,295.52,88.55z"/>
				<path class="st0" d="M312.99,88.61v5.01h-2.04v-4.74c0-1.55-0.77-2.31-2.08-2.31c-1.46,0-2.44,0.88-2.44,2.63v4.42h-2.04v-8.74
					h1.95v1.13c0.67-0.8,1.73-1.23,3.01-1.23C311.44,84.79,312.99,85.98,312.99,88.61z"/>
				<path class="st0" d="M320.84,93.15c-0.49,0.39-1.23,0.59-1.96,0.59c-1.91,0-3.01-1.01-3.01-2.94v-4.2h-1.44v-1.64h1.44v-2h2.04
					v2h2.34v1.64h-2.34v4.16c0,0.85,0.43,1.31,1.21,1.31c0.43,0,0.83-0.12,1.14-0.36L320.84,93.15z"/>
			</g>
		</g>
	</g>
	<g>
		<ellipse transform="matrix(0.866 -0.5 0.5 0.866 -13.2192 95.7717)" class="st1" cx="172.1" cy="72.55" rx="12.19" ry="10.09"/>
		<path class="st2" d="M202.97,80.44c-1.79-1-10.46,8.69-36.53,4.58c-16.42-2.59-24.09-18.12-23.64-28.37
			c0.61-13.93,8.13-19.68,9.09-20.41c-0.8-1.66-1.67-3.7-2.05-5.66c-0.18-0.91-0.23-2.02-0.3-2.95
			c-1.46,0.87-25.36,15.85-16.64,50.52c8.56,34.04,50.19,36.37,59.31,28.66c7-5.92,9.87-10.05,11.26-15.82
			C204.87,85.21,204.77,81.43,202.97,80.44z"/>
		
			<ellipse transform="matrix(0.4549 -0.8905 0.8905 0.4549 73.6827 163.789)" class="st2" cx="170.64" cy="21.7" rx="22.6" ry="17.82"/>
		<path class="st2" d="M197.8,55.39c-4.57-11.34-10.88-17.28-12.7-18.59c-1.45,1.74-3.17,3.06-4.91,4.36
			c1.59,3.18,8.74,17.84,7.39,28.37c-1.6,12.48-11.5,15-11.5,15s9.89-0.34,15.02-1.77c5.24-1.46,9.58-3.26,10.72-4.9
			C202.9,76.32,202.91,68.06,197.8,55.39z"/>
	</g>
</g>
<g>
</g>
<g>
</g>
<g>
</g>
<g>
</g>
<g>
</g>
<g>
</g>
</svg>
